REM DIRINDEX 1\6,1\2\7,1\2\8,1\2\9,1\3\10,1\3\11,1\4\12,1\4\13,1\4\14,1\5\15,1\5\16,1\5\17
REM DIRNAME cjc041,folder01,folder02,folder03,folder04,folder05,folder06,folder07,folder08,folder09,folder10,folder11,folder12,folder13,folder14,folder15,folder16
TITLE ""
FILE "3Q_t_0361-0375.mp3" MP3
  TRACK 01 AUDIO
    TITLE "6:cjc041_2328"
    INDEX 01 00:00:00
  TRACK 02 AUDIO
    TITLE "0:"
    INDEX 01 00:07:64
  TRACK 03 AUDIO
    TITLE "10:cjc041_2329"
    INDEX 01 00:09:06
  TRACK 04 AUDIO
    TITLE "0:"
    INDEX 01 00:10:10
  TRACK 05 AUDIO
    TITLE "11:cjc041_2330"
    INDEX 01 00:10:68
  TRACK 06 AUDIO
    TITLE "0:"
    INDEX 01 00:13:28
  TRACK 07 AUDIO
    TITLE "10:cjc041_2331"
    INDEX 01 00:14:07
  TRACK 08 AUDIO
    TITLE "0:"
    INDEX 01 00:15:28
  TRACK 09 AUDIO
    TITLE "11:cjc041_2332"
    INDEX 01 00:16:08
  TRACK 10 AUDIO
    TITLE "0:"
    INDEX 01 00:17:29
  TRACK 11 AUDIO
    TITLE "10:cjc041_2333"
    INDEX 01 00:18:07
  TRACK 12 AUDIO
    TITLE "0:"
    INDEX 01 00:19:34
  TRACK 13 AUDIO
    TITLE "11:cjc041_2334"
    INDEX 01 00:20:16
  TRACK 14 AUDIO
    TITLE "0:"
    INDEX 01 00:21:53
  TRACK 15 AUDIO
    TITLE "10:cjc041_2335"
    INDEX 01 00:22:25
  TRACK 16 AUDIO
    TITLE "0:"
    INDEX 01 00:23:40
  TRACK 17 AUDIO
    TITLE "11:cjc041_2336"
    INDEX 01 00:24:16
  TRACK 18 AUDIO
    TITLE "0:"
    INDEX 01 00:25:45
  TRACK 19 AUDIO
    TITLE "10:cjc041_2337"
    INDEX 01 00:26:28
  TRACK 20 AUDIO
    TITLE "0:"
    INDEX 01 00:27:47
  TRACK 21 AUDIO
    TITLE "11:cjc041_2338"
    INDEX 01 00:28:33
  TRACK 22 AUDIO
    TITLE "0:"
    INDEX 01 00:29:40
  TRACK 23 AUDIO
    TITLE "10:cjc041_2339"
    INDEX 01 00:30:20
  TRACK 24 AUDIO
    TITLE "0:"
    INDEX 01 00:31:29
  TRACK 25 AUDIO
    TITLE "11:cjc041_2340"
    INDEX 01 00:32:15
  TRACK 26 AUDIO
    TITLE "0:"
    INDEX 01 00:33:21
  TRACK 27 AUDIO
    TITLE "10:cjc041_2341"
    INDEX 01 00:34:00
  TRACK 28 AUDIO
    TITLE "0:"
    INDEX 01 00:35:10
  TRACK 29 AUDIO
    TITLE "11:cjc041_2342"
    INDEX 01 00:35:59
  TRACK 30 AUDIO
    TITLE "0:"
    INDEX 01 00:38:35
  TRACK 31 AUDIO
    TITLE "10:cjc041_2343"
    INDEX 01 00:39:15
  TRACK 32 AUDIO
    TITLE "0:"
    INDEX 01 00:40:19
  TRACK 33 AUDIO
    TITLE "11:cjc041_2344"
    INDEX 01 00:40:72
  TRACK 34 AUDIO
    TITLE "0:"
    INDEX 01 00:41:73
  TRACK 35 AUDIO
    TITLE "10:cjc041_2345"
    INDEX 01 00:42:49
  TRACK 36 AUDIO
    TITLE "0:"
    INDEX 01 00:43:70
  TRACK 37 AUDIO
    TITLE "11:cjc041_2346"
    INDEX 01 00:44:42
  TRACK 38 AUDIO
    TITLE "0:"
    INDEX 01 00:45:61
  TRACK 39 AUDIO
    TITLE "10:cjc041_2347"
    INDEX 01 00:46:35
  TRACK 40 AUDIO
    TITLE "0:"
    INDEX 01 00:47:46
  TRACK 41 AUDIO
    TITLE "11:cjc041_2348"
    INDEX 01 00:48:22
  TRACK 42 AUDIO
    TITLE "0:"
    INDEX 01 00:49:41
  TRACK 43 AUDIO
    TITLE "10:cjc041_2349"
    INDEX 01 00:50:15
  TRACK 44 AUDIO
    TITLE "0:"
    INDEX 01 00:51:52
  TRACK 45 AUDIO
    TITLE "11:cjc041_2350"
    INDEX 01 00:52:28
  TRACK 46 AUDIO
    TITLE "0:"
    INDEX 01 00:54:68
  TRACK 47 AUDIO
    TITLE "10:cjc041_2351"
    INDEX 01 00:55:42
  TRACK 48 AUDIO
    TITLE "0:"
    INDEX 01 00:56:55
  TRACK 49 AUDIO
    TITLE "11:cjc041_2352"
    INDEX 01 00:57:31
  TRACK 50 AUDIO
    TITLE "0:"
    INDEX 01 00:59:71
  TRACK 51 AUDIO
    TITLE "10:cjc041_2353"
    INDEX 01 01:00:43
  TRACK 52 AUDIO
    TITLE "0:"
    INDEX 01 01:01:64
  TRACK 53 AUDIO
    TITLE "11:cjc041_2354"
    INDEX 01 01:02:40
  TRACK 54 AUDIO
    TITLE "0:"
    INDEX 01 01:03:22
  TRACK 55 AUDIO
    TITLE "10:cjc041_2355"
    INDEX 01 01:04:05
  TRACK 56 AUDIO
    TITLE "0:"
    INDEX 01 01:05:22
  TRACK 57 AUDIO
    TITLE "11:cjc041_2356"
    INDEX 01 01:05:73
  TRACK 58 AUDIO
    TITLE "0:"
    INDEX 01 01:08:01
  TRACK 59 AUDIO
    TITLE "10:cjc041_2357"
    INDEX 01 01:08:56
  TRACK 60 AUDIO
    TITLE "0:"
    INDEX 01 01:09:71
  TRACK 61 AUDIO
    TITLE "11:cjc041_2358"
    INDEX 01 01:10:51
  TRACK 62 AUDIO
    TITLE "0:"
    INDEX 01 01:15:64
